<?xml version="1.0" encoding="utf-8"?>
<!-- Generator: Adobe Illustrator 16.0.0, SVG Export Plug-In . SVG Version: 6.00 Build 0)  -->
<!DOCTYPE svg PUBLIC "-//W3C//DTD SVG 1.1//EN" "http://www.w3.org/Graphics/SVG/1.1/DTD/svg11.dtd">
<svg version="1.1" id="Layer_1" xmlns="http://www.w3.org/2000/svg" xmlns:xlink="http://www.w3.org/1999/xlink" x="0px" y="0px"
	 width="60px" height="60px" viewBox="0 0 60 60" enable-background="new 0 0 60 60" xml:space="preserve">
<path fill="#FFFFFF" d="M12.868,12.868v13.661v2.828v11.949v2.828v2.997h1.896h0h1.101h1.727h0.001h1.101h0h28.438V47.04v-2.828
	v-7.366v-2.828V12.868H12.868z M21.159,21.067l4.105,4.104l-1.818,1.817l-2.151-2.15l-1.512,1.512l-1.954-1.954L21.159,21.067z
	 M14.868,27.357l1.547-1.547l3.368,3.368l1.512-1.512l2.151,2.15l3.232-3.231l4.316,4.316l-5.894,5.894l-8.335,8.336h-0.071h-1.826
	v-1.825V27.357z M45.132,42.212v2.828v0.092H19.597h-0.004l7.507-7.508l5.308-5.308l0.192-0.192l1.222-1.222l3.684-3.683
	l7.626,7.626V42.212z M37.506,24.392l-5.098,5.097l-4.316-4.316l-0.696-0.696l-0.718-0.718l-5.519-5.519l-4.744,4.743l-0.558,0.558
	l-0.856,0.856l-0.133,0.133v-9.661h30.264v17.149L37.506,24.392z"/>
<g>
	<polygon fill="#FFFFFF" points="49.132,15.812 49.132,17.469 52.375,17.469 52.375,31.671 49.132,28.428 49.132,30.77 
		52.375,34.013 52.375,40.113 52.375,42.455 52.375,42.531 49.132,42.531 49.132,44.188 54.031,44.188 54.031,44.111 54.031,41.77 
		54.031,35.669 54.031,33.327 54.031,15.812 	"/>
	<polygon fill="#FFFFFF" points="9.196,42.531 9.137,42.531 7.625,42.531 7.625,41.02 7.625,27.812 8.906,26.531 10.868,28.493 
		10.868,26.15 10.077,25.359 10.868,24.568 10.868,22.227 8.906,24.188 8.444,24.65 7.735,25.359 7.625,25.47 7.625,17.469 
		10.868,17.469 10.868,15.812 5.969,15.812 5.969,27.126 5.969,29.468 5.969,39.363 5.969,41.705 5.969,44.188 7.539,44.188 
		7.54,44.188 8.451,44.188 9.881,44.188 9.882,44.188 10.793,44.188 10.793,44.188 10.868,44.188 10.868,40.858 	"/>
</g>
</svg>
