<?xml version="1.0" encoding="utf-8"?>
<!-- Generator: Adobe Illustrator 16.0.0, SVG Export Plug-In . SVG Version: 6.00 Build 0)  -->
<!DOCTYPE svg PUBLIC "-//W3C//DTD SVG 1.1//EN" "http://www.w3.org/Graphics/SVG/1.1/DTD/svg11.dtd">
<svg version="1.1" id="Layer_1" xmlns="http://www.w3.org/2000/svg" xmlns:xlink="http://www.w3.org/1999/xlink" x="0px" y="0px"
	 width="60px" height="60px" viewBox="0 0 60 60" enable-background="new 0 0 60 60" xml:space="preserve">
<g>
	<path fill="#FFFFFF" d="M10.25,10.25v15.783v2.828v14.672v2.828v3.389h2.434h0h0.954h0h1.874h0.955H49.75v-0.336v-2.828v-9.021
		v-2.828V10.25H10.25z M47.75,47.75H17.514h-0.002h-2.828h-0.217H12.25v-2.217V26.861l1.96-1.96l3.915,3.915l1.757-1.757l2.5,2.5
		l3.756-3.756l5.247,5.247l1.414,1.414L47.75,47.414V47.75z M15.625,23.487l4.099-4.099l5,5l-2.342,2.342l-2.5-2.5l-1.757,1.757
		L15.625,23.487z M47.75,44.586L34.213,31.049l4.511-4.51l9.026,9.026V44.586z M38.724,23.711l-5.925,5.924l-5.247-5.247
		l-1.414-1.414l-6.415-6.415l-5.513,5.513l-1.414,1.414l-0.546,0.546V12.25h35.5v20.487L38.724,23.711z"/>
</g>
</svg>
